<?xml version="1.0" encoding="utf-8"?>
<!-- Generator: Adobe Illustrator 15.0.0, SVG Export Plug-In . SVG Version: 6.00 Build 0)  -->
<!DOCTYPE svg PUBLIC "-//W3C//DTD SVG 1.1//EN" "http://www.w3.org/Graphics/SVG/1.1/DTD/svg11.dtd">
<svg version="1.1" id="Layer_1" xmlns="http://www.w3.org/2000/svg" xmlns:xlink="http://www.w3.org/1999/xlink" x="0px" y="0px"
	 width="184.252px" height="108.872px" viewBox="0 14.366 184.252 108.872" enable-background="new 0 14.366 184.252 108.872"
	 xml:space="preserve">
<g>
	<path d="M77.26,100.368c-1.055,0-2.436-0.264-3.268-0.934V86.628l-1.745-0.122l0.041-0.588l2.74-0.224l-0.102,1.096v5.155
		c0.812-0.63,1.766-0.954,2.801-0.954c2.679,0,4.262,1.888,4.262,4.485C81.988,98.156,79.979,100.368,77.26,100.368z M77.584,91.824
		c-0.954,0-1.867,0.386-2.659,0.893v6.21c0.629,0.365,1.563,0.59,2.293,0.59c2.232,0,3.693-1.826,3.693-3.979
		C80.913,93.529,79.715,91.824,77.584,91.824z"/>
	<path d="M90.374,92.25l-0.832-0.243c-0.832,0-1.907,0.771-2.537,2.01v5.316l2.092,0.243l0.039,0.589h-4.931l0.04-0.589l1.807-0.243
		v-6.777l-0.853-1.035v-0.203l1.827-0.224l-0.082,2.11c0.853-1.583,1.867-2.212,2.883-2.212c0.264,0,0.506,0.021,0.75,0.102
		L90.374,92.25z"/>
	<path d="M92.608,100.165l0.042-0.589l1.807-0.243v-6.777l-0.854-1.035v-0.203l1.907-0.224l-0.102,1.097v7.144l1.807,0.243
		l0.041,0.589L92.608,100.165L92.608,100.165z M94.862,88.677c-0.406,0-0.73-0.345-0.73-0.751c0-0.404,0.324-0.729,0.73-0.729
		c0.404,0,0.729,0.325,0.729,0.729C95.593,88.333,95.267,88.677,94.862,88.677z"/>
	<path d="M103.437,105.583c-2.049,0-4.281-0.792-4.281-3.187c0-0.649,0.203-1.178,0.548-1.604c0.467-0.386,1.098-0.832,1.543-1.075
		c-0.832-0.283-1.479-0.771-1.479-1.785c0-0.894,0.832-1.645,1.541-1.948c-0.468-0.507-0.75-1.197-0.75-2.029
		c0-1.644,1.379-2.963,3.104-2.963c0.467,0,1.014,0.102,1.358,0.223h2.72v0.609l-1.826,0.081c0.508,0.406,0.853,1.218,0.853,2.05
		c0,1.767-1.277,2.983-3.104,2.983c-0.711,0-1.361-0.184-1.89-0.548c-0.506,0.161-1.137,0.729-1.137,1.358
		c0,0.976,0.873,1.238,1.705,1.4c1.664,0.305,3.086,0.486,4.811,0.832c0.468,0.71,0.67,1.399,0.67,2.069
		C107.821,104.082,105.974,105.583,103.437,105.583z M106.562,100.793c-1.479-0.305-3.328-0.548-4.586-0.791
		c-1.035,0.305-1.807,1.056-1.807,2.334c0,1.197,1.076,2.396,3.41,2.396c1.969,0,3.287-1.179,3.287-2.659
		C106.866,101.646,106.786,101.26,106.562,100.793z M103.661,91.743c-1.299,0-2.172,0.854-2.172,2.232
		c0,1.339,0.934,2.212,2.172,2.212c1.277,0,2.17-0.832,2.17-2.212C105.831,92.594,104.919,91.743,103.661,91.743z"/>
	<path d="M116.632,100.165l0.041-0.589l1.4-0.243v-4.911c0-1.928-1.035-2.598-2.193-2.598c-0.994,0-2.09,0.467-2.84,1.218v6.291
		l1.604,0.243l0.039,0.589h-4.442l0.04-0.589l1.806-0.243V86.628l-1.846-0.122l0.04-0.588l2.861-0.224l-0.102,1.056v5.621
		c0.994-0.994,1.947-1.38,2.963-1.38c1.887,0,3.023,0.913,3.023,3.43v4.911l1.623,0.243l0.041,0.589L116.632,100.165
		L116.632,100.165z"/>
	<path d="M126.392,100.368c-1.623,0-2.639-0.771-2.639-2.942v-5.338h-1.541v-0.345l1.379-0.873l0.914-1.42h0.203v1.765h3.186v0.873
		h-3.186v5.055c0,1.644,0.709,2.395,1.785,2.395c0.568,0,1.238-0.102,1.807-0.305l0.143,0.689
		C127.894,100.246,126.878,100.368,126.392,100.368z"/>
	<path d="M134.364,100.368c-0.975,0-2.172-0.122-2.861-0.508l0.285-1.583c0.852,0.427,2.232,0.689,3.084,0.689
		c0.162,0,0.346,0,0.486-0.021c0.162-0.162,0.365-0.507,0.365-0.854c0-1.744-4.101-1.563-4.101-4.402
		c0-1.624,1.948-2.699,3.797-2.699c0.871,0,1.563,0.081,2.252,0.264l-0.264,1.645c-0.729-0.284-2.191-0.527-2.802-0.527
		c-0.143,0-0.387,0.021-0.387,0.021c-0.223,0.162-0.426,0.526-0.426,0.853c0,1.623,4.141,1.542,4.141,4.322
		C137.937,99.089,136.454,100.368,134.364,100.368z"/>
	<path d="M139.335,100.165l0.041-1.137l1.684-0.284v-5.256l-1.115-1.481V91.56l3.49-0.468l-0.162,1.686v5.966l1.644,0.284
		l0.041,1.137H139.335z M142.136,89.003c-0.609,0-1.076-0.486-1.076-1.097c0-0.608,0.467-1.096,1.076-1.096
		c0.607,0,1.096,0.486,1.096,1.096C143.231,88.516,142.743,89.003,142.136,89.003z"/>
	<path d="M150.067,100.368c-1.785,0-2.9-0.873-2.9-3.044v-4.729h-1.584V91.58l1.928-0.812l1.197-1.646h0.67v2.09h2.598v1.381h-2.598
		v4.425c0,1.218,0.549,1.786,1.422,1.786c0.445,0,0.932-0.103,1.318-0.244l0.223,1.34
		C151.753,100.225,150.8,100.368,150.067,100.368z"/>
	<path d="M157.96,100.368c-2.252,0-4.566-1.502-4.566-4.587c0-3.206,2.355-4.789,4.404-4.789c2.436,0,3.652,1.542,3.652,3.49
		c0,0.284-0.039,0.567-0.08,0.853h-5.58c-0.021,0.103-0.041,0.265-0.041,0.406c0,1.847,1.115,3.023,2.719,3.023
		c0.914,0,1.867-0.365,2.537-0.954l0.588,1.034C160.741,99.82,159.462,100.368,157.96,100.368z M159.3,93.853
		c0-0.954-0.547-1.705-1.563-1.705c-0.994,0-1.766,0.853-1.867,2.131l3.43-0.202V93.853L159.3,93.853z"/>
</g>
<g>
	<path d="M28.318,119.473c-0.1,0.377-0.27,0.686-0.512,0.928c-0.135,0.135-0.313,0.243-0.533,0.325
		c-0.221,0.082-0.462,0.123-0.725,0.123c-0.32,0-0.603-0.053-0.848-0.155c-0.245-0.104-0.471-0.293-0.677-0.57v0.661H24.48v-7.593
		h0.543v3.113c0.207-0.277,0.432-0.468,0.677-0.57c0.246-0.104,0.528-0.154,0.848-0.154c0.263,0,0.504,0.041,0.725,0.122
		c0.22,0.082,0.398,0.19,0.533,0.325c0.242,0.242,0.412,0.552,0.512,0.929s0.149,0.796,0.149,1.258S28.418,119.096,28.318,119.473z
		 M27.871,117.393c-0.036-0.248-0.105-0.476-0.208-0.678s-0.252-0.361-0.448-0.479c-0.196-0.117-0.443-0.176-0.741-0.176
		c-0.299,0-0.546,0.059-0.741,0.176c-0.196,0.118-0.345,0.277-0.448,0.479c-0.104,0.202-0.173,0.43-0.208,0.678
		c-0.036,0.249-0.054,0.521-0.054,0.82c0,0.3,0.018,0.572,0.054,0.821c0.035,0.249,0.104,0.475,0.208,0.677
		c0.103,0.203,0.252,0.363,0.448,0.48c0.195,0.117,0.442,0.176,0.741,0.176c0.298,0,0.545-0.059,0.741-0.176
		c0.195-0.117,0.345-0.277,0.448-0.48c0.103-0.202,0.172-0.428,0.208-0.677s0.053-0.521,0.053-0.821
		C27.924,117.915,27.906,117.642,27.871,117.393z"/>
	<path d="M30.64,118.332c0,0.654,0.144,1.155,0.432,1.504c0.288,0.35,0.702,0.522,1.243,0.522c0.299,0,0.555-0.048,0.768-0.145
		s0.43-0.254,0.65-0.475l0.405,0.319c-0.277,0.276-0.553,0.479-0.827,0.603c-0.274,0.125-0.617,0.188-1.029,0.188
		c-0.711,0-1.253-0.226-1.626-0.673c-0.374-0.447-0.56-1.103-0.56-1.963c0-0.823,0.181-1.47,0.544-1.936
		c0.363-0.466,0.867-0.698,1.514-0.698c0.64,0,1.143,0.222,1.509,0.666c0.366,0.444,0.549,1.059,0.549,1.84v0.245L30.64,118.332
		L30.64,118.332z M33.621,117.344c-0.025-0.123-0.069-0.265-0.133-0.421c-0.114-0.263-0.292-0.473-0.533-0.63
		c-0.242-0.155-0.508-0.233-0.8-0.233s-0.558,0.078-0.8,0.233c-0.242,0.157-0.419,0.367-0.533,0.63
		c-0.064,0.156-0.106,0.298-0.128,0.421c-0.021,0.125-0.039,0.309-0.053,0.551h3.029C33.662,117.653,33.646,117.469,33.621,117.344z
		"/>
	<path d="M38.948,116.465c-0.156-0.155-0.304-0.263-0.442-0.318c-0.139-0.059-0.314-0.086-0.528-0.086
		c-0.427,0-0.763,0.15-1.008,0.453c-0.245,0.303-0.368,0.671-0.368,1.104v3.167h-0.543v-5.141h0.543v0.683
		c0.149-0.234,0.359-0.417,0.629-0.549s0.562-0.197,0.875-0.197c0.256,0,0.481,0.037,0.677,0.111
		c0.195,0.075,0.382,0.201,0.56,0.379L38.948,116.465z"/>
	<path d="M41.996,120.785c-0.405,0-0.712-0.119-0.922-0.357c-0.209-0.237-0.314-0.563-0.314-0.976v-6.26h0.544v6.249
		c0,0.299,0.059,0.518,0.176,0.656c0.117,0.138,0.322,0.208,0.613,0.208h0.373v0.479L41.996,120.785L41.996,120.785z"/>
	<path d="M44.599,113.81c-0.078,0.078-0.17,0.116-0.277,0.116c-0.114,0-0.209-0.038-0.288-0.116
		c-0.079-0.078-0.118-0.171-0.118-0.277c0-0.113,0.039-0.21,0.118-0.288c0.078-0.078,0.17-0.117,0.277-0.117
		c0.113,0,0.209,0.039,0.288,0.117s0.118,0.171,0.118,0.277C44.716,113.635,44.677,113.732,44.599,113.81z M44.044,120.785v-5.141
		h0.543v5.141H44.044z"/>
	<path d="M50.122,120.785v-3.188c0-0.498-0.121-0.879-0.363-1.143c-0.242-0.263-0.594-0.395-1.056-0.395
		c-0.455,0-0.811,0.136-1.066,0.404c-0.256,0.271-0.384,0.647-0.384,1.132v3.188H46.71v-5.141h0.543v0.607
		c0.384-0.448,0.889-0.672,1.515-0.672c0.576,0,1.031,0.163,1.365,0.49c0.355,0.342,0.533,0.816,0.533,1.429v3.285h-0.544V120.785z"
		/>
	<path d="M59.288,119.425c-0.082,0.389-0.244,0.702-0.485,0.943c-0.149,0.149-0.339,0.267-0.57,0.352
		c-0.231,0.087-0.482,0.13-0.752,0.13c-0.306,0-0.571-0.05-0.794-0.146c-0.224-0.096-0.436-0.261-0.635-0.496v0.576h-1.066v-7.593
		h1.088v2.729c0.192-0.228,0.4-0.386,0.624-0.475c0.224-0.089,0.489-0.133,0.794-0.133c0.27,0,0.519,0.042,0.747,0.128
		c0.227,0.085,0.416,0.202,0.565,0.352c0.242,0.242,0.403,0.556,0.485,0.938c0.082,0.384,0.123,0.832,0.123,1.344
		S59.37,119.038,59.288,119.425z M58.286,117.362c-0.025-0.207-0.078-0.393-0.16-0.555c-0.082-0.164-0.197-0.292-0.347-0.385
		c-0.149-0.093-0.341-0.139-0.576-0.139c-0.234,0-0.428,0.046-0.581,0.139s-0.269,0.219-0.347,0.378
		c-0.079,0.16-0.132,0.345-0.16,0.551c-0.028,0.206-0.042,0.446-0.042,0.725s0.014,0.521,0.042,0.726
		c0.028,0.206,0.082,0.392,0.16,0.556c0.078,0.163,0.193,0.291,0.347,0.384c0.153,0.092,0.347,0.139,0.581,0.139
		c0.235,0,0.427-0.047,0.576-0.139c0.149-0.093,0.265-0.223,0.347-0.39s0.135-0.354,0.16-0.561s0.037-0.443,0.037-0.715
		C58.323,117.806,58.311,117.568,58.286,117.362z"/>
	<path d="M65.211,119.318c-0.093,0.338-0.26,0.635-0.501,0.891c-0.192,0.192-0.423,0.348-0.693,0.464
		c-0.271,0.117-0.58,0.178-0.928,0.178c-0.348,0-0.656-0.059-0.922-0.171c-0.267-0.114-0.496-0.271-0.688-0.471
		c-0.242-0.256-0.409-0.553-0.501-0.891c-0.093-0.337-0.139-0.751-0.139-1.242c0-0.49,0.046-0.904,0.139-1.242
		c0.092-0.338,0.259-0.631,0.501-0.88c0.192-0.199,0.421-0.354,0.688-0.469s0.574-0.171,0.922-0.171
		c0.349,0,0.658,0.057,0.928,0.171c0.27,0.113,0.501,0.27,0.693,0.469c0.242,0.249,0.409,0.542,0.501,0.88
		c0.092,0.338,0.139,0.752,0.139,1.242C65.35,118.567,65.303,118.981,65.211,119.318z M64.187,117.18
		c-0.05-0.242-0.149-0.438-0.299-0.588c-0.206-0.205-0.473-0.309-0.8-0.309c-0.32,0-0.583,0.104-0.789,0.309
		c-0.149,0.149-0.249,0.346-0.298,0.588c-0.05,0.24-0.075,0.539-0.075,0.896s0.025,0.654,0.075,0.896
		c0.049,0.24,0.149,0.437,0.298,0.586c0.213,0.214,0.476,0.319,0.789,0.319c0.32,0,0.587-0.105,0.8-0.319
		c0.149-0.149,0.249-0.346,0.299-0.586c0.05-0.242,0.075-0.541,0.075-0.896C64.262,117.721,64.237,117.421,64.187,117.18z"/>
	<path d="M70.233,120.785v-0.544c-0.37,0.405-0.85,0.608-1.439,0.608c-0.547,0-0.992-0.164-1.333-0.491
		c-0.199-0.191-0.34-0.412-0.421-0.661s-0.123-0.537-0.123-0.863v-3.456h1.088v3.296c0,0.398,0.101,0.698,0.304,0.901
		c0.203,0.202,0.464,0.304,0.784,0.304c0.327,0,0.596-0.102,0.805-0.304c0.21-0.203,0.315-0.503,0.315-0.901v-3.296H71.3v5.407
		H70.233z"/>
	<path d="M74.62,120.785c-0.484,0-0.852-0.143-1.104-0.427s-0.378-0.641-0.378-1.066v-6.1h1.087v6.036
		c0,0.213,0.044,0.371,0.133,0.475s0.24,0.154,0.454,0.154h0.479v0.928H74.62z"/>
	<path d="M79.794,120.785v-0.576c-0.192,0.235-0.402,0.4-0.629,0.496s-0.494,0.146-0.8,0.146c-0.27,0-0.521-0.043-0.752-0.129
		c-0.231-0.086-0.421-0.202-0.57-0.353c-0.242-0.241-0.404-0.556-0.485-0.943c-0.081-0.387-0.123-0.838-0.123-1.35
		s0.041-0.96,0.123-1.344s0.244-0.696,0.485-0.938c0.149-0.148,0.337-0.267,0.565-0.352c0.228-0.086,0.477-0.128,0.747-0.128
		c0.306,0,0.572,0.044,0.8,0.133c0.228,0.089,0.434,0.247,0.619,0.475v-2.729h1.088v7.593L79.794,120.785L79.794,120.785z
		 M79.736,117.362c-0.025-0.207-0.079-0.393-0.16-0.555c-0.082-0.164-0.197-0.292-0.347-0.385c-0.149-0.093-0.341-0.139-0.576-0.139
		c-0.235,0-0.429,0.046-0.581,0.139c-0.153,0.093-0.269,0.219-0.347,0.378c-0.079,0.16-0.132,0.345-0.16,0.551
		s-0.042,0.446-0.042,0.725s0.014,0.521,0.042,0.726c0.028,0.206,0.082,0.392,0.16,0.556c0.078,0.163,0.193,0.291,0.347,0.384
		c0.152,0.092,0.346,0.139,0.581,0.139c0.234,0,0.427-0.047,0.576-0.139c0.149-0.093,0.265-0.223,0.347-0.39s0.135-0.354,0.16-0.561
		c0.025-0.206,0.037-0.443,0.037-0.715C79.773,117.806,79.761,117.568,79.736,117.362z"/>
	<path d="M83.553,118.396c0,0.469,0.121,0.839,0.363,1.108c0.241,0.271,0.579,0.405,1.013,0.405c0.292,0,0.533-0.043,0.726-0.129
		c0.191-0.085,0.387-0.227,0.586-0.426l0.693,0.649c-0.291,0.291-0.588,0.505-0.891,0.641c-0.302,0.135-0.681,0.203-1.136,0.203
		c-0.355,0-0.679-0.051-0.971-0.149c-0.291-0.1-0.545-0.258-0.762-0.475c-0.217-0.218-0.388-0.506-0.513-0.864
		c-0.124-0.358-0.187-0.787-0.187-1.285c0-0.867,0.208-1.544,0.624-2.031c0.416-0.486,0.973-0.729,1.669-0.729
		c0.719,0,1.28,0.237,1.686,0.714c0.405,0.477,0.607,1.105,0.607,1.888v0.48H83.553z M85.952,117.254
		c-0.021-0.1-0.06-0.217-0.117-0.352c-0.085-0.206-0.222-0.371-0.41-0.496c-0.188-0.124-0.407-0.188-0.656-0.188
		s-0.469,0.063-0.661,0.188c-0.191,0.125-0.33,0.29-0.416,0.496c-0.05,0.121-0.085,0.231-0.106,0.336
		c-0.021,0.104-0.032,0.236-0.032,0.399h2.432C85.984,117.482,85.974,117.354,85.952,117.254z"/>
	<path d="M91.627,116.647c-0.128-0.128-0.251-0.222-0.368-0.277c-0.117-0.056-0.265-0.085-0.442-0.085
		c-0.299,0-0.553,0.111-0.763,0.336c-0.21,0.224-0.314,0.518-0.314,0.879v3.285h-1.088v-5.407h1.066v0.587
		c0.143-0.191,0.343-0.349,0.603-0.47c0.26-0.12,0.539-0.181,0.837-0.181c0.264,0,0.498,0.039,0.704,0.117
		c0.206,0.077,0.401,0.21,0.587,0.395L91.627,116.647z"/>
	<path d="M99.851,119.473c-0.101,0.377-0.271,0.686-0.514,0.928c-0.135,0.135-0.313,0.243-0.533,0.325
		c-0.22,0.082-0.462,0.123-0.725,0.123c-0.32,0-0.604-0.053-0.848-0.155c-0.246-0.104-0.473-0.293-0.678-0.57v3.114H96.01v-7.594
		h0.544v0.661c0.206-0.277,0.434-0.468,0.678-0.57c0.246-0.104,0.527-0.154,0.849-0.154c0.263,0,0.505,0.041,0.726,0.122
		c0.221,0.082,0.397,0.19,0.532,0.325c0.242,0.242,0.413,0.552,0.513,0.929c0.101,0.377,0.149,0.796,0.149,1.258
		S99.949,119.096,99.851,119.473z M99.401,117.393c-0.036-0.248-0.104-0.476-0.209-0.678c-0.104-0.202-0.252-0.361-0.447-0.479
		c-0.195-0.117-0.441-0.176-0.741-0.176c-0.298,0-0.545,0.059-0.741,0.176c-0.195,0.118-0.345,0.277-0.447,0.479
		c-0.104,0.202-0.172,0.43-0.207,0.678c-0.037,0.249-0.055,0.521-0.055,0.82c0,0.3,0.018,0.572,0.055,0.821
		c0.035,0.249,0.104,0.475,0.207,0.677c0.104,0.203,0.252,0.363,0.447,0.48c0.196,0.117,0.443,0.176,0.741,0.176
		c0.3,0,0.546-0.059,0.741-0.176s0.345-0.277,0.447-0.48c0.104-0.202,0.173-0.428,0.209-0.677c0.035-0.249,0.054-0.521,0.054-0.821
		C99.455,117.915,99.437,117.642,99.401,117.393z"/>
	<path d="M104.771,116.465c-0.156-0.155-0.305-0.263-0.442-0.318c-0.14-0.059-0.315-0.086-0.528-0.086
		c-0.427,0-0.763,0.15-1.008,0.453s-0.368,0.671-0.368,1.104v3.167h-0.544v-5.141h0.544v0.683c0.149-0.234,0.359-0.417,0.63-0.549
		s0.563-0.197,0.875-0.197c0.256,0,0.48,0.037,0.676,0.111c0.196,0.075,0.383,0.201,0.562,0.379L104.771,116.465z"/>
	<path d="M110.192,119.387c-0.09,0.349-0.258,0.646-0.508,0.896c-0.377,0.377-0.853,0.565-1.429,0.565
		c-0.575,0-1.052-0.188-1.429-0.565c-0.249-0.249-0.418-0.548-0.508-0.896c-0.088-0.349-0.133-0.739-0.133-1.174
		c0-0.434,0.045-0.823,0.133-1.173c0.09-0.349,0.259-0.646,0.508-0.896c0.377-0.377,0.854-0.565,1.429-0.565
		c0.576,0,1.052,0.188,1.429,0.565c0.25,0.249,0.418,0.547,0.508,0.896c0.088,0.35,0.134,0.739,0.134,1.173
		C110.326,118.648,110.28,119.04,110.192,119.387z M109.696,117.212c-0.057-0.284-0.182-0.521-0.373-0.715
		c-0.291-0.291-0.646-0.438-1.066-0.438s-0.775,0.146-1.066,0.438c-0.191,0.192-0.315,0.431-0.373,0.715s-0.086,0.618-0.086,1.002
		c0,0.385,0.028,0.72,0.086,1.003c0.058,0.284,0.182,0.522,0.373,0.715c0.291,0.292,0.646,0.438,1.066,0.438
		s0.775-0.146,1.066-0.438c0.191-0.191,0.316-0.431,0.373-0.715c0.058-0.283,0.086-0.618,0.086-1.003
		C109.782,117.83,109.754,117.497,109.696,117.212z"/>
	<path d="M112.416,122.88c-0.21,0.238-0.519,0.357-0.923,0.357h-0.469v-0.48h0.373c0.291,0,0.496-0.068,0.612-0.208
		c0.117-0.139,0.177-0.355,0.177-0.654v-6.25h0.543v6.261C112.729,122.317,112.626,122.642,112.416,122.88z M112.741,113.81
		c-0.078,0.078-0.172,0.116-0.277,0.116c-0.113,0-0.21-0.038-0.288-0.116c-0.077-0.078-0.116-0.171-0.116-0.277
		c0-0.113,0.039-0.21,0.116-0.288c0.078-0.078,0.171-0.117,0.277-0.117c0.114,0,0.21,0.039,0.288,0.117s0.117,0.171,0.117,0.277
		C112.858,113.635,112.819,113.732,112.741,113.81z"/>
	<path d="M115.118,118.332c0,0.654,0.145,1.155,0.433,1.504c0.288,0.35,0.702,0.522,1.242,0.522c0.299,0,0.556-0.048,0.769-0.145
		s0.431-0.254,0.649-0.475l0.405,0.319c-0.277,0.276-0.553,0.479-0.826,0.603c-0.273,0.125-0.617,0.188-1.029,0.188
		c-0.711,0-1.253-0.226-1.626-0.673c-0.372-0.447-0.56-1.103-0.56-1.963c0-0.823,0.181-1.47,0.543-1.936
		c0.363-0.466,0.867-0.698,1.515-0.698c0.64,0,1.144,0.222,1.509,0.666c0.366,0.444,0.551,1.059,0.551,1.84v0.245L115.118,118.332
		L115.118,118.332z M118.101,117.344c-0.025-0.123-0.07-0.265-0.135-0.421c-0.113-0.263-0.291-0.473-0.533-0.63
		c-0.24-0.155-0.508-0.233-0.8-0.233c-0.291,0-0.558,0.078-0.8,0.233c-0.241,0.157-0.42,0.367-0.533,0.63
		c-0.063,0.156-0.105,0.298-0.128,0.421c-0.021,0.125-0.039,0.309-0.054,0.551h3.029
		C118.142,117.653,118.124,117.469,118.101,117.344z"/>
	<path d="M123.487,120.677c-0.25,0.113-0.555,0.172-0.918,0.172c-0.696,0-1.248-0.235-1.652-0.704
		c-0.404-0.471-0.607-1.113-0.607-1.932c0-0.817,0.203-1.461,0.607-1.93c0.404-0.47,0.956-0.704,1.652-0.704
		c0.363,0,0.668,0.057,0.918,0.171c0.248,0.113,0.508,0.319,0.777,0.618l-0.373,0.341c-0.221-0.241-0.427-0.41-0.619-0.506
		c-0.19-0.097-0.426-0.145-0.703-0.145c-0.598,0-1.053,0.228-1.364,0.683c-0.128,0.186-0.22,0.39-0.272,0.613
		s-0.08,0.511-0.08,0.857c0,0.35,0.027,0.636,0.08,0.858c0.055,0.225,0.146,0.429,0.272,0.613c0.313,0.455,0.769,0.683,1.364,0.683
		c0.277,0,0.513-0.048,0.703-0.144c0.192-0.098,0.398-0.266,0.619-0.508l0.373,0.342
		C123.995,120.358,123.735,120.564,123.487,120.677z"/>
	<path d="M127.526,120.785c-0.391,0-0.694-0.124-0.911-0.373c-0.218-0.249-0.325-0.572-0.325-0.971v-3.393h-0.703v-0.404h0.703
		v-1.643h0.544v1.643h1.163v0.404h-1.163v3.402c0,0.271,0.065,0.479,0.196,0.629c0.133,0.149,0.33,0.226,0.593,0.226h0.374v0.479
		L127.526,120.785L127.526,120.785z"/>
</g>
<g>
	<g>
		<polygon fill="#72CCD2" stroke="#FFFFFF" stroke-width="0.7475" points="87.911,48.322 105.048,45.183 116.333,58.455 
			110.483,74.863 93.345,78.002 82.062,64.733 		"/>
		<polygon fill="#72CCD2" stroke="#FFFFFF" stroke-width="0.7475" points="116.183,58.409 133.591,58.843 138.56,75.535 
			124.218,85.417 110.39,74.833 		"/>
	</g>
	<g>
		<polygon fill="#77787B" stroke="#FFFFFF" stroke-width="0.7475" points="52.007,60.623 54.316,43.356 70.425,36.721 
			84.226,47.359 81.914,64.625 65.805,71.256 		"/>
		<polygon fill="#FBB034" stroke="#FFFFFF" stroke-width="0.7475" points="70.336,36.852 76.13,20.431 93.54,20.866 98.507,37.557 
			84.167,47.439 		"/>
	</g>
	<g>
		<polygon fill="#72CCD2" stroke="#FFFFFF" stroke-width="0.7475" points="52.7,98.711 36.994,91.177 35.661,73.807 50.041,63.971 
			65.751,71.503 67.08,88.875 		"/>
		<polygon fill="#72CCD2" stroke="#FFFFFF" stroke-width="0.7475" points="35.76,73.933 21.931,63.349 27.723,46.927 45.133,47.36 
			50.099,64.052 		"/>
	</g>
</g>
</svg>
