<?xml version="1.0" encoding="UTF-8" standalone="no"?>
<svg
   xmlns:dc="http://purl.org/dc/elements/1.1/"
   xmlns:cc="http://creativecommons.org/ns#"
   xmlns:rdf="http://www.w3.org/1999/02/22-rdf-syntax-ns#"
   xmlns:svg="http://www.w3.org/2000/svg"
   xmlns="http://www.w3.org/2000/svg"
   viewBox="0 0 319.37332 153.70667"
   height="153.70667"
   width="319.37332"
   xml:space="preserve"
   id="svg2"
   version="1.1"><metadata
     id="metadata8"><rdf:RDF><cc:Work
         rdf:about=""><dc:format>image/svg+xml</dc:format><dc:type
           rdf:resource="http://purl.org/dc/dcmitype/StillImage" /></cc:Work></rdf:RDF></metadata><defs
     id="defs6" /><g
     transform="matrix(1.3333333,0,0,-1.3333333,0,153.70667)"
     id="g10"><g
       transform="scale(0.1)"
       id="g12"><path
         id="path14"
         style="fill:#ffffff;fill-opacity:1;fill-rule:nonzero;stroke:none"
         d="M 0,0 H 2395.28 V 1152.76 H 0 V 0" /><path
         id="path16"
         style="fill:#231f20;fill-opacity:1;fill-rule:nonzero;stroke:none"
         d="M 352.797,764.02 H 442.59 V 635.57 c -13.977,-4.461 -28.188,-7.832 -42.641,-10.117 -14.453,-2.293 -31.195,-3.433 -50.222,-3.433 -39.993,0 -71.122,11.89 -93.403,35.679 -22.285,23.781 -33.426,57.121 -33.426,100 0,27.461 5.516,51.516 16.532,72.168 11.023,20.656 26.886,36.438 47.605,47.336 20.715,10.899 44.985,16.36 72.809,16.36 28.183,0 54.437,-5.188 78.769,-15.547 l -11.925,-27.09 c -23.844,10.117 -46.79,15.176 -68.833,15.176 -32.156,0 -57.269,-9.582 -75.335,-28.735 -18.067,-19.148 -27.098,-45.699 -27.098,-79.668 0,-35.652 8.699,-62.691 26.105,-81.121 17.403,-18.426 42.965,-27.644 76.692,-27.644 18.304,0 36.191,2.109 53.656,6.328 v 81.297 h -59.078 v 27.461" /><path
         id="path18"
         style="fill:#231f20;fill-opacity:1;fill-rule:nonzero;stroke:none"
         d="M 532.996,823.641 V 695.184 c 0,-16.133 3.676,-28.184 11.024,-36.133 7.343,-7.949 18.847,-11.914 34.503,-11.914 20.715,0 35.864,5.652 45.442,16.972 9.57,11.329 14.359,29.813 14.359,55.465 v 104.067 h 29.992 V 625.633 h -24.753 l -4.333,26.562 h -1.628 c -6.141,-9.765 -14.664,-17.226 -25.559,-22.402 -10.906,-5.188 -23.344,-7.773 -37.313,-7.773 -24.089,0 -42.125,5.718 -54.105,17.168 -11.988,11.433 -17.98,29.746 -17.98,54.921 v 129.532 h 30.351" /><path
         id="path20"
         style="fill:#231f20;fill-opacity:1;fill-rule:nonzero;stroke:none"
         d="m 799.566,646.766 c 5.297,0 10.414,0.39 15.356,1.179 4.937,0.782 8.851,1.59 11.742,2.434 v -22.941 c -3.25,-1.563 -8.035,-2.864 -14.363,-3.887 -6.321,-1.016 -12.012,-1.531 -17.071,-1.531 -38.3,0 -57.453,20.175 -57.453,60.527 V 800.34 h -28.363 v 14.453 l 28.363,12.461 12.649,42.273 h 17.344 v -45.886 h 57.449 V 800.34 H 767.77 V 683.805 c 0,-11.922 2.828,-21.075 8.492,-27.461 5.656,-6.387 13.426,-9.578 23.304,-9.578" /><path
         id="path22"
         style="fill:#231f20;fill-opacity:1;fill-rule:nonzero;stroke:none"
         d="m 1008.39,685.613 c 0,-20.715 -7.2,-36.496 -21.593,-47.336 -14.391,-10.839 -35.922,-16.257 -64.586,-16.257 -14.695,0 -27.223,0.996 -37.578,2.976 -10.36,1.992 -20.055,4.91 -29.086,8.762 v 45.523 c 10.234,-4.812 21.766,-8.843 34.598,-12.097 12.824,-3.25 24.117,-4.871 33.875,-4.871 19.988,0 29.988,5.781 29.988,17.343 0,4.332 -1.328,7.852 -3.973,10.567 -2.652,2.703 -7.226,5.781 -13.73,9.207 -6.504,3.437 -15.176,7.441 -26.016,12.019 -15.539,6.504 -26.949,12.524 -34.234,18.071 -7.289,5.535 -12.586,11.882 -15.899,19.05 -3.316,7.168 -4.968,15.989 -4.968,26.477 0,17.937 6.953,31.816 20.867,41.641 13.906,9.812 33.629,14.722 59.164,14.722 24.328,0 47.996,-5.301 71.001,-15.894 L 989.602,775.77 c -10.122,4.335 -19.579,7.878 -28.368,10.652 -8.793,2.773 -17.765,4.148 -26.918,4.148 -16.257,0 -24.39,-4.39 -24.39,-13.179 0,-4.946 2.625,-9.219 7.855,-12.832 5.246,-3.614 16.715,-8.965 34.422,-16.075 15.777,-6.386 27.34,-12.343 34.688,-17.89 7.343,-5.539 12.761,-11.914 16.259,-19.145 3.49,-7.222 5.24,-15.836 5.24,-25.836" /><path
         id="path24"
         style="fill:#231f20;fill-opacity:1;fill-rule:nonzero;stroke:none"
         d="m 1136.74,622.02 c -62.87,0 -94.31,34.511 -94.31,103.511 0,34.336 8.55,60.559 25.66,78.684 17.1,18.125 41.61,27.195 73.53,27.195 23.36,0 44.32,-4.578 62.87,-13.726 l -16.26,-42.637 c -8.67,3.484 -16.75,6.348 -24.21,8.57 -7.47,2.231 -14.94,3.344 -22.4,3.344 -28.67,0 -43,-20.352 -43,-61.055 0,-39.511 14.33,-59.258 43,-59.258 10.59,0 20.41,1.407 29.44,4.239 9.04,2.832 18.07,7.254 27.1,13.281 V 637.02 c -8.91,-5.665 -17.91,-9.582 -27.01,-11.75 -9.09,-2.168 -20.56,-3.25 -34.41,-3.25" /><path
         id="path26"
         style="fill:#231f20;fill-opacity:1;fill-rule:nonzero;stroke:none"
         d="m 1434.73,625.633 h -55.11 v 117.969 c 0,29.148 -10.84,43.726 -32.52,43.726 -15.41,0 -26.55,-5.242 -33.41,-15.719 -6.87,-10.48 -10.3,-27.461 -10.3,-50.949 v -95.027 h -55.1 v 281.109 h 55.1 V 849.48 c 0,-4.464 -0.43,-14.945 -1.27,-31.449 l -1.27,-16.25 h 2.9 c 12.28,19.75 31.79,29.629 58.53,29.629 23.73,0 41.74,-6.383 54.02,-19.156 12.29,-12.766 18.43,-31.074 18.43,-54.926 V 625.633" /><path
         id="path28"
         style="fill:#231f20;fill-opacity:1;fill-rule:nonzero;stroke:none"
         d="m 1578.44,792.203 c -11.69,0 -20.84,-3.699 -27.46,-11.113 -6.63,-7.402 -10.42,-17.91 -11.39,-31.524 h 77.33 c -0.25,13.614 -3.79,24.122 -10.67,31.524 -6.85,7.414 -16.13,11.113 -27.81,11.113 z m 7.77,-170.183 c -32.52,0 -57.93,8.972 -76.24,26.914 -18.31,17.949 -27.47,43.359 -27.47,76.25 0,33.836 8.46,60 25.39,78.496 16.92,18.484 40.32,27.73 70.18,27.73 28.56,0 50.77,-8.133 66.67,-24.39 15.9,-16.262 23.85,-38.723 23.85,-67.383 v -26.739 h -130.26 c 0.6,-15.664 5.24,-27.89 13.91,-36.679 8.67,-8.789 20.84,-13.188 36.5,-13.188 12.16,0 23.67,1.262 34.51,3.789 10.84,2.532 22.16,6.567 33.96,12.114 v -42.637 c -9.64,-4.824 -19.94,-8.41 -30.9,-10.754 -10.95,-2.352 -24.32,-3.523 -40.1,-3.523" /><path
         id="path30"
         style="fill:#231f20;fill-opacity:1;fill-rule:nonzero;stroke:none"
         d="m 1772.19,625.633 h -55.1 v 201.98 h 55.1 z m -57.44,254.195 c 0,17.942 9.99,26.914 29.98,26.914 20,0 30,-8.972 30,-26.914 0,-8.551 -2.51,-15.215 -7.5,-19.969 -5,-4.754 -12.5,-7.136 -22.5,-7.136 -19.99,0 -29.98,9.043 -29.98,27.105" /><path
         id="path32"
         style="fill:#231f20;fill-opacity:1;fill-rule:nonzero;stroke:none"
         d="m 2019.78,625.633 h -55.1 v 117.969 c 0,14.578 -2.6,25.507 -7.77,32.793 -5.18,7.285 -13.43,10.933 -24.75,10.933 -15.42,0 -26.56,-5.152 -33.42,-15.445 -6.87,-10.305 -10.31,-27.375 -10.31,-51.223 v -95.027 h -55.1 v 201.98 h 42.09 l 7.42,-25.832 h 3.07 c 6.14,9.75 14.6,17.129 25.38,22.129 10.78,4.992 23.04,7.5 36.77,7.5 23.48,0 41.31,-6.355 53.48,-19.058 12.16,-12.715 18.24,-31.047 18.24,-55.024 V 625.633" /><path
         id="path34"
         style="fill:#7bd3d0;fill-opacity:1;fill-rule:nonzero;stroke:none"
         d="m 289.828,479.566 c 0,3.36 0.957,6.106 2.883,8.243 1.918,2.129 4.406,3.195 7.469,3.195 5.164,0 7.746,-2.707 7.746,-8.106 0,-3.3 -1.008,-6.093 -3.02,-8.371 -2.011,-2.285 -4.336,-3.425 -6.976,-3.425 -2.282,0 -4.2,0.73 -5.762,2.207 -1.563,1.472 -2.34,3.554 -2.34,6.257 z M 247.063,311.371 c -4.149,0 -7.84,0.625 -11.083,1.887 v 12.695 c 3.665,-1.316 7.239,-1.973 10.719,-1.973 7.504,0 12.543,6.153 15.125,18.458 l 23.774,111.914 h 14.945 L 276.594,341.078 c -2.164,-10.262 -5.598,-17.781 -10.309,-22.547 -4.719,-4.773 -11.125,-7.16 -19.222,-7.16" /><path
         id="path36"
         style="fill:#7bd3d0;fill-opacity:1;fill-rule:nonzero;stroke:none"
         d="m 364.695,443.277 c -6.183,0 -11.992,-2.824 -17.422,-8.457 -5.433,-5.644 -9.585,-13.476 -12.468,-23.504 h 1.078 c 13.687,0 24.176,1.786 31.472,5.36 7.29,3.562 10.938,8.742 10.938,15.527 0,3.184 -1.098,5.82 -3.289,7.93 -2.191,2.101 -5.625,3.144 -10.309,3.144 z m -12.511,-89.406 c -11.047,0 -19.723,3.274 -26.028,9.817 -6.297,6.535 -9.453,15.605 -9.453,27.187 0,11.289 2.238,22.109 6.711,32.461 4.473,10.352 10.399,18.406 17.781,24.18 7.383,5.761 15.52,8.64 24.403,8.64 9.183,0 16.086,-2 20.711,-5.984 4.621,-3.992 6.929,-9.559 6.929,-16.707 0,-10.805 -4.98,-19.277 -14.945,-25.434 -9.969,-6.16 -24.223,-9.234 -42.77,-9.234 h -2.968 l -0.364,-7.199 c 0,-7.86 1.848,-14.004 5.539,-18.418 3.692,-4.403 9.411,-6.61 17.153,-6.61 3.777,0 7.668,0.535 11.66,1.621 3.988,1.075 8.961,3.055 14.902,5.938 v -13.145 c -5.644,-2.648 -10.625,-4.496 -14.945,-5.539 -4.32,-1.054 -9.098,-1.574 -14.316,-1.574" /><path
         id="path38"
         style="fill:#7bd3d0;fill-opacity:1;fill-rule:nonzero;stroke:none"
         d="m 436.047,366.207 c 3.301,0 7.621,0.781 12.961,2.336 V 356.93 c -2.039,-0.84 -4.559,-1.563 -7.563,-2.157 -3.004,-0.605 -5.398,-0.902 -7.203,-0.902 -7.504,0 -13.25,1.789 -17.238,5.356 -3.996,3.574 -5.988,8.894 -5.988,15.984 0,3.957 0.539,8.457 1.617,13.508 l 11.433,54.199 h -15.48 l 1.258,6.57 16.656,7.032 11.254,20.527 h 8.824 l -4.953,-22.695 h 24.676 l -2.348,-11.434 h -24.578 l -11.617,-54.387 c -1.078,-5.215 -1.621,-9.179 -1.621,-11.883 0,-3.363 0.875,-5.937 2.613,-7.746 1.742,-1.797 4.176,-2.695 7.297,-2.695" /><path
         id="path40"
         style="fill:#7bd3d0;fill-opacity:1;fill-rule:nonzero;stroke:none"
         d="m 524.055,355.672 h -64.742 l 2.07,10.535 62.488,76.895 h -43.129 l 2.434,11.25 h 59.152 l -2.609,-12.61 -61.227,-74.812 h 47.813 l -2.25,-11.258" /><path
         id="path42"
         style="fill:#7bd3d0;fill-opacity:1;fill-rule:nonzero;stroke:none"
         d="m 581.184,366.207 c 3.296,0 7.621,0.781 12.961,2.336 V 356.93 c -2.04,-0.84 -4.559,-1.563 -7.563,-2.157 -3.004,-0.605 -5.398,-0.902 -7.203,-0.902 -7.504,0 -13.25,1.789 -17.238,5.356 -3.996,3.574 -5.989,8.894 -5.989,15.984 0,3.957 0.536,8.457 1.618,13.508 l 11.433,54.199 h -15.48 l 1.257,6.57 16.657,7.032 11.254,20.527 h 8.824 l -4.953,-22.695 h 24.676 l -2.344,-11.434 h -24.582 l -11.617,-54.387 c -1.079,-5.215 -1.622,-9.179 -1.622,-11.883 0,-3.363 0.875,-5.937 2.614,-7.746 1.742,-1.797 4.176,-2.695 7.297,-2.695" /><path
         id="path44"
         style="fill:#7bd3d0;fill-opacity:1;fill-rule:nonzero;stroke:none"
         d="m 686.52,406.004 47.363,48.348 h 18.094 l -42.227,-42.051 26.563,-56.629 h -16.84 l -21.157,47.176 -13.687,-11.075 -7.383,-36.101 h -15.308 l 29.71,140.105 h 15.309 c -4.32,-20.175 -8.191,-38.242 -11.613,-54.207 -3.418,-15.968 -6.481,-27.824 -9.184,-35.566 h 0.36" /><path
         id="path46"
         style="fill:#7bd3d0;fill-opacity:1;fill-rule:nonzero;stroke:none"
         d="m 789.031,366.383 c 5.824,0 11.614,2.773 17.379,8.332 5.762,5.555 10.445,12.781 14.043,21.695 3.606,8.918 5.406,17.844 5.406,26.789 0,6.184 -1.683,11.106 -5.043,14.766 -3.367,3.664 -7.773,5.5 -13.238,5.5 -6.238,0 -12.051,-2.59 -17.422,-7.746 -5.371,-5.164 -9.59,-12.156 -12.652,-20.985 -3.063,-8.82 -4.59,-18.125 -4.59,-27.914 0,-6.843 1.41,-11.961 4.234,-15.347 2.817,-3.391 6.782,-5.09 11.883,-5.09 z m 17.106,89.773 c 5.523,0 10.445,-1.48 14.769,-4.461 4.324,-2.968 7.684,-7.246 10.086,-12.832 h 0.988 l 6.032,15.489 h 11.437 l -20.976,-98.68 h -11.981 l 2.34,18.816 h -0.719 c -10.746,-13.75 -22.058,-20.617 -33.941,-20.617 -8.348,0 -14.891,2.973 -19.629,8.91 -4.742,5.946 -7.117,14.082 -7.117,24.403 0,12.48 2.129,24.074 6.39,34.757 4.266,10.68 10.149,19.063 17.653,25.118 7.5,6.062 15.722,9.097 24.668,9.097" /><path
         id="path48"
         style="fill:#7bd3d0;fill-opacity:1;fill-rule:nonzero;stroke:none"
         d="M 895.234,454.352 881.73,391.773 c -1.085,-5.339 -1.625,-9.511 -1.625,-12.507 0,-8.586 4.411,-12.883 13.235,-12.883 5.281,0 10.473,1.808 15.582,5.398 5.098,3.606 9.598,8.774 13.504,15.492 3.902,6.727 6.871,14.825 8.914,24.317 l 9.004,42.762 h 14.945 l -20.797,-98.68 h -12.519 l 1.98,18.277 h -1.078 c -5.883,-7.508 -11.496,-12.73 -16.84,-15.672 -5.344,-2.937 -10.863,-4.406 -16.566,-4.406 -7.684,0 -13.715,2.082 -18.098,6.25 -4.383,4.184 -6.57,10.141 -6.57,17.883 0,3.723 0.66,8.879 1.976,15.48 l 13.149,60.868 h 15.308" /><path
         id="path50"
         style="fill:#7bd3d0;fill-opacity:1;fill-rule:nonzero;stroke:none"
         d="m 953.344,311.371 c -4.141,0 -7.891,0.625 -11.254,1.887 v 12.695 c 3.844,-1.316 7.203,-1.973 10.082,-1.973 4.566,0 8.078,1.856 10.539,5.579 2.461,3.718 4.441,9.031 5.941,15.933 l 20.442,97.426 h -17.379 l 1.172,6.031 18.543,5.949 2.078,9.004 c 2.758,12.004 6.582,20.481 11.482,25.43 4.89,4.949 12.13,7.434 21.74,7.434 2.4,0 5.34,-0.344 8.82,-1.036 3.48,-0.695 6.18,-1.457 8.11,-2.296 l -3.87,-11.621 c -4.57,1.75 -8.68,2.617 -12.34,2.617 -5.22,0 -9.23,-1.453 -12.02,-4.364 -2.79,-2.921 -5.06,-8.246 -6.8,-15.988 l -2.25,-9.726 h 21.43 l -2.25,-11.434 h -21.34 l -20.892,-98.859 c -2.344,-11.348 -5.941,-19.629 -10.805,-24.856 -4.863,-5.223 -11.253,-7.832 -19.179,-7.832" /><path
         id="path52"
         style="fill:#7bd3d0;fill-opacity:1;fill-rule:nonzero;stroke:none"
         d="m 1079.09,443.277 c -6.19,0 -12,-2.824 -17.42,-8.457 -5.44,-5.644 -9.59,-13.476 -12.48,-23.504 h 1.08 c 13.69,0 24.18,1.786 31.47,5.36 7.29,3.562 10.94,8.742 10.94,15.527 0,3.184 -1.09,5.82 -3.29,7.93 -2.19,2.101 -5.62,3.144 -10.3,3.144 z m -12.52,-89.406 c -11.04,0 -19.72,3.274 -26.02,9.817 -6.3,6.535 -9.46,15.605 -9.46,27.187 0,11.289 2.24,22.109 6.71,32.461 4.48,10.352 10.4,18.406 17.79,24.18 7.38,5.761 15.51,8.64 24.4,8.64 9.18,0 16.08,-2 20.71,-5.984 4.62,-3.992 6.93,-9.559 6.93,-16.707 0,-10.805 -4.98,-19.277 -14.95,-25.434 -9.97,-6.16 -24.22,-9.234 -42.77,-9.234 h -2.97 l -0.36,-7.199 c 0,-7.86 1.85,-14.004 5.54,-18.418 3.69,-4.403 9.41,-6.61 17.15,-6.61 3.78,0 7.67,0.535 11.66,1.621 3.99,1.075 8.96,3.055 14.9,5.938 v -13.145 c -5.64,-2.648 -10.62,-4.496 -14.94,-5.539 -4.32,-1.054 -9.1,-1.574 -14.32,-1.574" /><path
         id="path54"
         style="fill:#7bd3d0;fill-opacity:1;fill-rule:nonzero;stroke:none"
         d="m 1180.51,355.672 13.33,62.305 c 1.2,6.25 1.8,10.566 1.8,12.968 0,3.778 -1.06,6.817 -3.2,9.09 -2.13,2.285 -5.54,3.43 -10.22,3.43 -5.34,0 -10.55,-1.809 -15.62,-5.41 -5.07,-3.594 -9.54,-8.735 -13.42,-15.395 -3.87,-6.656 -6.79,-14.734 -8.78,-24.215 l -9.09,-42.773 h -15.12 l 21.06,98.68 h 12.52 l -1.98,-18.274 h 0.9 c 5.76,7.317 11.33,12.5 16.7,15.531 5.38,3.028 10.94,4.547 16.7,4.547 7.63,0 13.65,-2.086 18.06,-6.258 4.41,-4.168 6.62,-10.007 6.62,-17.507 0,-4.746 -0.7,-10.149 -2.07,-16.211 l -12.88,-60.508 h -15.31" /></g></g></svg>